<svg width="190" height="37" viewBox="0 0 190 37" fill="none" xmlns="http://www.w3.org/2000/svg">
<g clip-path="url(#clip0)">
<path d="M0 36.6726H3.76001C5.81907 36.6726 7.52002 35.0056 7.52002 32.922V2.97667H3.76001C1.67112 2.97667 0 4.67337 0 6.72727V36.6726Z" fill="white"/>
<path d="M33.7805 23.7241L19.9042 4.52454C19.188 3.572 18.0541 2.97667 16.8604 2.97667H15.0103C12.9512 2.97667 11.2502 4.6436 11.2502 6.72727V36.6726H15.0103C17.0693 36.6726 18.7703 35.0056 18.7703 32.922V15.7763L32.6465 35.1247C33.3627 36.107 34.4967 36.7023 35.6903 36.7023H37.5106C39.5697 36.7023 41.2707 35.0354 41.2707 32.9517V2.97667H37.5106C35.4516 2.97667 33.7506 4.6436 33.7506 6.72727V23.7241H33.7805Z" fill="white"/>
<path d="M62.9951 8.66211C66.397 8.66211 69.2916 9.94208 71.5894 12.4127L71.7386 12.5615L75.9761 8.57281L75.8269 8.42398C72.7532 4.85198 68.0979 2.88737 62.6668 2.88737C52.3715 2.88737 44.8813 10.0611 44.8813 19.9437C44.8813 29.8262 52.3417 37 62.637 37C68.0681 37 72.7532 35.0354 75.8269 31.4634L75.9462 31.3146L71.7087 27.2663L71.5595 27.4449C69.2617 29.9751 66.3671 31.255 62.9652 31.255C56.3106 31.255 51.4763 26.5221 51.4763 19.9735C51.5061 13.395 56.3404 8.66211 62.9951 8.66211Z" fill="white"/>
<path d="M87.077 1.39903H80.7805V36.5237H87.077V1.39903Z" fill="white"/>
<path d="M100.625 11.1328H94.3285V36.5237H100.625V11.1328Z" fill="white"/>
<path d="M97.4916 0C95.2237 0 93.5227 1.6074 93.5227 3.72084C93.5227 5.83427 95.2237 7.44167 97.4916 7.44167C99.7596 7.44167 101.461 5.77474 101.461 3.572C101.461 1.54787 99.7596 0 97.4916 0Z" fill="white"/>
<path d="M122.29 10.8351C118.798 10.8351 115.844 11.9365 113.875 13.9904V11.103H107.876V36.494H114.173V23.6943C114.173 19.0507 116.65 16.3717 120.947 16.3717C124.707 16.3717 126.677 18.5744 126.677 22.7418V36.5237H132.973V21.9976C132.943 15.0024 128.974 10.8351 122.29 10.8351Z" fill="white"/>
<path d="M146.252 11.1328H139.956V36.5237H146.252V11.1328Z" fill="white"/>
<path d="M143.149 0C140.881 0 139.18 1.6074 139.18 3.72084C139.18 5.83427 140.881 7.44167 143.149 7.44167C145.417 7.44167 147.118 5.77474 147.118 3.572C147.118 1.54787 145.387 0 143.149 0Z" fill="white"/>
<path d="M171.319 27.8914L171.2 28.07C169.827 30.2727 167.738 31.4336 165.142 31.4336C160.726 31.4336 157.771 28.3974 157.771 23.8431C157.771 19.2888 160.726 16.2526 165.142 16.2526C167.708 16.2526 169.797 17.4135 171.2 19.6162L171.319 19.7948L176.183 16.967L176.094 16.7884C174.154 12.9783 170.305 10.8648 165.202 10.8648C157.085 10.8648 151.445 16.1931 151.445 23.8431C151.445 31.4039 157.234 36.8809 165.202 36.8809C170.155 36.8809 174.124 34.708 176.094 30.9276L176.183 30.749L171.319 27.8914Z" fill="white"/>
<path d="M184.658 13.6629C181.704 13.6629 179.317 11.2816 179.317 8.33468C179.317 5.38777 181.704 3.00644 184.658 3.00644C187.613 3.00644 190 5.38777 190 8.33468C190 11.2518 187.613 13.6629 184.658 13.6629ZM184.658 3.57201C182.032 3.57201 179.914 5.68544 179.914 8.30491C179.914 10.9244 182.032 13.0378 184.658 13.0378C187.284 13.0378 189.403 10.8946 189.403 8.30491C189.403 5.71521 187.284 3.57201 184.658 3.57201Z" fill="white"/>
<path d="M185.971 10.6565L184.987 9.22767C184.927 9.22767 184.867 9.22767 184.807 9.22767H183.703V10.6565H182.808V5.77473H184.807C186.091 5.77473 186.896 6.4296 186.896 7.5012C186.896 8.24537 186.508 8.78117 185.852 9.04907L186.986 10.6565H185.971ZM184.718 6.54867H183.644V8.4835H184.718C185.524 8.4835 185.912 8.1263 185.912 7.5012C185.941 6.90587 185.524 6.54867 184.718 6.54867Z" fill="white"/>
</g>
<defs>
<clipPath id="clip0">
<rect width="190" height="37" fill="white"/>
</clipPath>
</defs>
</svg>
